<svg id="Layer_1" data-name="Layer 1" xmlns="http://www.w3.org/2000/svg" xmlns:xlink="http://www.w3.org/1999/xlink" viewBox="0 0 512 512"><defs><style>.cls-1{fill:url(#radial-gradient);}.cls-2{fill:#3b3833;}.cls-3{fill:#c87d40;}.cls-4{fill:#985f2c;}.cls-5{fill:#f0bd1f;}.cls-6{fill:#cb932e;}</style><radialGradient id="radial-gradient" cx="256" cy="256" r="316.27" gradientUnits="userSpaceOnUse"><stop offset="0.29" stop-color="#05669a"/><stop offset="1" stop-color="#282c66"/></radialGradient></defs><rect class="cls-1" width="512" height="512"/><path class="cls-2" d="M65.91,147.56c4.94-13.74,12-25.94,24.44-34.39,10.22-7.18,23.06-5.28,34-9.84,13.69-1.36,27-4.81,40.33-7.91l115.11-23a51.37,51.37,0,0,0,6.59-.83c37.29-9.35,65.12,6.15,88.49,33.54,2,2.29,3.19,4.72,3,7.77q-3.42,5.79-6.86,11.56-14.16,22.86-28.33,45.72c-1.94,2.87-3.76,5.83-5.85,8.58-6.45,8.47-8.83,21.15-22.68,22.06-.64.05-1.21,1.1-1.81,1.69a12.08,12.08,0,0,0,3.21.9c9.2,0,18.4-.25,27.59-.27,7.15,0,14.57,2.45,21.12-2.52,15.68,0,26.59,9.7,36.74,19.57,7.7,7.47,16.16,11.86,26.45,13.45L446.57,240c3.12,3.89,2.39,8.47,2,12.84-1.84,21.2-4.82,42.36-5.56,63.59-.88,25.53-8.47,45.43-35.41,53.06a14.59,14.59,0,0,0-3.21,1.92c-2.94,1.19-5.91,2.31-8.81,3.59Q319.3,408.61,243,442.31c-10.61,1.7-20.79,1.12-30.68-3.9C184,424,155.76,409.21,126.88,395.89c-17.48-8.06-26.9-20.38-28.46-39.22q-.9-33.72-1.81-67.44c-.11-3.8.18-7.66-.41-11.38-1.61-10.16,2.3-15.49,12.62-17.15a208,208,0,0,0,25-6.12c2.54-.75,7.83,0,6.69-4.56-1.08-4.4-5.67-3.14-9-2.28-9.86,2.51-19.74,5-29.46,7.94-4.83,1.48-8.7,1.06-12.15-2.62L73,220.14,64.6,192.67A119.3,119.3,0,0,1,65.91,147.56ZM235.47,425.77c-.07,6.77,2.16,8.77,8.56,5.73,7.2-3.42,14.6-6.44,21.89-9.67q72.68-32.18,145.35-64.32c11-4.85,18.85-12,20.1-24.54,2.43-24.14,4.57-48.31,7-72.44.67-6.62-1.14-8.94-8-6.66C415,259,399.49,264,383.91,268.69c-7.29,2.18-10,6.51-10.16,14-.37,15.31-1.68,30.6-2.28,45.91-.28,7-3.15,11.07-9.9,13.41-11.14,3.86-22,8.56-33,12.74-9.15,3.47-11.4,2-11.52-8-.18-16-.13-31.95,0-47.93,0-5.69-1.24-8.24-7.83-6-22.67,7.63-45.48,14.87-68.31,22.06-5.85,1.85-7.82,5.34-7.7,11.36ZM107,319.31c.46,10.14,1.06,24.49,1.79,38.83.6,11.83,6.16,20.71,16.74,26,30.23,15.24,60.56,30.26,90.78,45.52,6.66,3.37,10,2.85,9.79-5.7-.8-32.55-1.39-65.11-2-97.67-.1-5.93-2.93-9.67-8.25-11.61-33.89-12.37-67.83-24.62-101.7-37.06-6.14-2.25-7.27.67-7.23,5.8C107.07,294,107,304.55,107,319.31ZM266.69,202.59c9.67-2.41,19.61-4.77,29.47-7.42,2.95-.79,7.47-.38,8.23-3.67.84-3.65-3.73-4.58-6.18-6.31C281.83,173.64,267,160.66,258.36,142c-2.17-4.69-5.3-5.53-10.05-4.66-17.29,3.16-34.63,6-52,9-5.67,1-9.91,4-13.52,8.36q-32.65,39.57-65.41,79.06c-1.54,1.86-4.64,3.87-2.91,6.41,1.61,2.37,4.73.64,7.15,0q30.18-7.73,60.36-15.49c3.12-.8,6.63-1.43,7.79-4.85,5.23-15.42,18.87-17.72,32-20.58C236.88,196,251.68,198.55,266.69,202.59Zm-139.2-86.07c-28.65,0-42.23,8.79-49.15,27-13.1,34.4-1.45,65.1,15.07,94.88,2.82,5.08,5.81,2.23,8.18-.61q37.1-44.52,74.08-89.15c2.28-2.75,3.4-5.56-.17-8.18C158.35,127.81,140.55,116.75,127.49,116.52Zm63.36,21.12c.64,0,1.28,0,1.91-.16q82-14.23,164-28.44c6.75-1.17,5.25-3.86,1.72-7.26-18.22-17.57-39.11-27.21-65-21.83-9.68,2-19.34,4.07-29,6q-56.73,11.36-113.44,22.72c-2,.4-5.35-.52-5.53,2.37-.16,2.46,3.16,2.65,5.05,3.52a155.47,155.47,0,0,1,30.19,18.34C183.69,135.25,186.7,137.67,190.85,137.64Zm162.7-18.75c-25.94,4.55-53.63,9.39-81.32,14.27-7.5,1.33-5.11,5.83-2.82,9.85,10.69,18.71,27.39,30.89,45.51,41.46,3.91,2.27,6.59.68,8.75-2.81q17.65-28.54,35.39-57C361.91,120,360.55,118.15,353.55,118.89ZM326.27,316.28c0,7.68-.09,15.35.06,23,0,2.22-.8,6.47,3.31,5.06,10.23-3.51,20.23-7.71,30.21-11.91,2.73-1.15,2.36-4.25,2.5-6.8.69-13.07.83-26.21,2.27-39.2,1.2-10.81-2.49-11-11.26-8C326.36,287.74,326.26,287.44,326.27,316.28Zm-90.91-109.5a61.23,61.23,0,0,0-30.69,5.53c-3.1,1.41-5.46,3.36-5.37,7.14.08,3.39,2.42,5.27,5.06,6.4,21,9,42.07,9.12,63.13.23,3-1.28,5.93-3.36,5.78-6.9s-3.34-5.22-6.2-6.73C257.44,207.37,247.05,206.28,235.36,206.78Zm-40.89,65.4c4.92-.94,11.52,1.57,14.44-3a87.81,87.81,0,0,1,11.64-14.82c3-3,.47-4.4-2.26-5.18-18.68-5.34-37.17-5.23-55,3.07-6.89,3.2-6.8,9.07-.19,12.83C172.81,270.62,183.58,271.72,194.47,272.18Zm43.92-19.37c-8.67-.27-7.76,5.13-6.46,9.79,4.14,14.84,14.34,25.31,26,34.56a5.1,5.1,0,0,0,5.4,1c6-2.7,15.06-1.64,17.58-7.54,1.91-4.46-5.06-9.52-8.37-14.12-4.54-6.31-10.42-11.24-16.8-15.54C250.21,257.23,244.54,253.63,238.39,252.81Zm175.44-4.5a14.49,14.49,0,0,1-.82-1.64c-2.43-8.71-33.91-36.64-42.35-37.6-2.76-.31-4.09.3-3.75,3.6.92,8.73,27.16,38.71,35.51,39.89C406.93,253.2,410.65,251.14,413.83,248.31ZM328.45,227c5.07-.24,10.14-.4,15.2-.72,8.38-.52,2.32-7.61,4.82-11.19,2.11-3-2-3.77-4.42-4-14.62-1-29.16-.82-43.38,3.39-2.18.64-4.66,1.17-4.73,3.82s2.34,3.29,4.48,4.11C309.47,225.89,318.88,226.75,328.45,227ZM194.09,290.33c4.45-.28,8.91-.5,13.36-.86,2.85-.23,6-.17,5.68-4.54-.3-3.8-2-5.87-6.07-5.54-15.44,1.24-30.59.16-45.08-5.89-5-2.09-4.71.87-3.9,4.12,1,4.16,4.38,6.08,8,7.65C175,289.2,184.43,290.27,194.09,290.33Zm128.07-24.74c-6.69,0-13.39,0-20.08.05-1.17,0-3,.39-3.36,1.14-.7,1.58,1.21,1.78,2.18,2.07,21.55,6.34,42.76,5.15,63.58-3.16,1.67-.67,3.51-2.05,2.74-4.23-.16-.43-2.92-.3-4.33.11C349.56,265.45,335.9,265.91,322.16,265.59Zm-104.22,6.79c-.13,8.47,13.18,29.19,20.73,32.09,3.64,1.4,7.62.68,9.6-2.22,2.14-3.13-2-4.78-3.8-6.57-7.5-7.52-13.92-15.74-18.42-25.43-1-2.05-1.05-5.89-4.51-5C218.43,266.08,218,269.39,217.94,272.38Zm7.81-32.75c-2.25.42-4.75-1.34-6.79.84,1.91.92,3.73,2.26,5.75,2.68,9.53,2,19.06,4.48,28.71,5.33a22,22,0,0,0,18.17-6.73c1.68-1.81,3.1-4.48,1.31-6.91s-4-.56-6,.18A85.68,85.68,0,0,1,225.75,239.63ZM332,241.48c4.46,0,9,.32,13.38-.11,3.15-.31,8.57,1.27,8.61-3.43.06-5.64-5.35-4.19-8.93-3.76-14.46,1.77-28.67.48-42.79-2.8-2.34-.54-5.77-4-6.93.89-.87,3.64,2.9,4.43,5.5,5.44C310.88,241.6,321.41,241.91,332,241.48Zm-23.64,16c10.74-.35,21.24-.83,31.36-4.11,1.43-.47,3.7-.53,3.46-2.53-.26-2.24-2.43-1.21-3.79-1.14-17.51.93-35,1.07-52.44-1.25-2.31-.31-4.62-1.05-5.06,2.26-.38,2.84,1.54,3.67,3.94,4.37C293.28,257.31,301,256.65,308.35,257.53Zm50.49-41c-3.76,2.94-3.15,6.26-1.67,9.39,5.83,12.34,14.87,22.15,25.05,31,2.66,2.32,5.61,2.33,7.61-.14,2.14-2.63-1.38-3.72-2.71-5-10.1-9.4-19.25-19.51-25.75-31.81A32.49,32.49,0,0,0,358.84,216.51Zm-63.32,70.85c3.88-1.22,8.77-2.67,13.58-4.34,1.08-.37,1.88-1.52,2.81-2.3a13.76,13.76,0,0,0-3.24-1.86c-8.43-2.16-16.61-4.59-22.1-12.22-1.31-1.83-3.27-1.49-4.42.89C279.44,273.15,288.22,287.38,295.52,287.36ZM149.26,271c-.38-3.44,1-8.73-4.77-8.29-7.44.56-15,1.79-21.52,6,3.86,5.12,10.3,5,15.41,7.59.84.42,1.78.65,2.65,1C147.29,279.9,150.08,277.9,149.26,271Zm142.1-64.84c-2.08.57-5.15,1.28-8.12,2.27-1.94.66-6.15-.3-3.94,4.11,1.48,3,3.71,5.41,7.49,2.9,2.35-1.56,4.65-3.23,6.89-5,1.11-.86,3.31-1.27,2.7-3.13C295.84,205.69,294,205.73,291.36,206.19ZM167.94,241.26a3,3,0,0,0-4.17-1.77c-4.77,1.66-11.27-.14-13.86,5.72-.68,1.52,2.32,4.08,4.79,3C159.24,246.21,163.52,243.62,167.94,241.26Zm47.2,55.8c-2.59.49-7.63.29-7.31,2.53.59,4.2,5.85,3.86,9.35,4.78,2.23.59,4.84,0,4.55-3.2C221.38,297.37,218.34,297.05,215.14,297.06Zm58.93-41.89c-.77-.83.49-3.82-2.75-3-2.66.64-6.35,1-6.92,4-.47,2.4,2,4.4,4.93,4.49C272.59,260.7,273.43,258.35,274.07,255.17Zm90.24-3.88c-.53-2.8-2.15-3.9-4.69-4.1-3.53-.27-5.26,1.72-6.24,4.69s1.12,3.27,3.05,3.07C359.45,254.64,362.87,254.82,364.31,251.29Zm-76.38-14.07c-1.75-2.32,1.13-6.94-3-7.9-2.45-.56-3.24,2.21-3.33,4.59-.1,2.9,1.08,4.85,3.91,5.6C287.21,240,288.67,239.84,287.93,237.22Z"/><path class="cls-3" d="M233.14,326.18c-.12-6,1.85-9.51,7.7-11.36,22.83-7.19,45.64-14.43,68.31-22.06,6.59-2.22,7.86.33,7.83,6-.09,16-.14,32,0,47.93.12,10,2.37,11.5,11.52,8,11-4.18,21.89-8.88,33-12.74,6.75-2.34,9.62-6.44,9.9-13.41.6-15.31,1.91-30.6,2.28-45.91.18-7.48,2.87-11.81,10.16-14C399.49,264,415,259,430.41,253.87c6.83-2.28,8.64,0,8,6.66-2.44,24.13-4.58,48.3-7,72.44-1.25,12.52-9.06,19.69-20.1,24.54q-72.75,32-145.35,64.32c-7.29,3.23-14.69,6.25-21.89,9.67-6.4,3-8.63,1-8.56-5.73Z"/><path class="cls-4" d="M107,319.31c0-14.76,0-25.31,0-35.85,0-5.13,1.09-8,7.23-5.8,33.87,12.44,67.81,24.69,101.7,37.06,5.32,1.94,8.15,5.68,8.25,11.61.56,32.56,1.15,65.12,2,97.67.21,8.55-3.13,9.07-9.79,5.7-30.22-15.26-60.55-30.28-90.78-45.52-10.58-5.33-16.14-14.21-16.74-26C108.08,343.8,107.48,329.45,107,319.31Z"/><path class="cls-4" d="M266.69,202.59c-15-4-29.81-6.61-44.88-3.32-13.13,2.86-26.77,5.16-32,20.58-1.16,3.42-4.67,4.05-7.79,4.85q-30.2,7.74-60.36,15.49c-2.42.62-5.54,2.35-7.15,0-1.73-2.54,1.37-4.55,2.91-6.41q32.67-39.57,65.41-79.06c3.61-4.37,7.85-7.4,13.52-8.36,17.33-2.92,34.67-5.81,52-9,4.75-.87,7.88,0,10.05,4.66,8.64,18.63,23.47,31.61,39.85,43.16,2.45,1.73,7,2.66,6.18,6.31-.76,3.29-5.28,2.88-8.23,3.67C286.3,197.82,276.36,200.18,266.69,202.59Z"/><path class="cls-3" d="M127.49,116.52c13.06.23,30.86,11.29,48,23.9,3.57,2.62,2.45,5.43.17,8.18q-37,44.6-74.08,89.15c-2.37,2.84-5.36,5.69-8.18.61-16.52-29.78-28.17-60.48-15.07-94.88C85.26,125.31,98.84,116.48,127.49,116.52Z"/><path class="cls-3" d="M190.85,137.64c-4.15,0-7.16-2.39-10.2-4.73a155.47,155.47,0,0,0-30.19-18.34c-1.89-.87-5.21-1.06-5.05-3.52.18-2.89,3.55-2,5.53-2.37Q207.64,97.23,264.38,86c9.68-1.94,19.34-4,29-6,25.92-5.38,46.81,4.26,65,21.83,3.53,3.4,5,6.09-1.72,7.26q-82,14.14-163.95,28.44C192.13,137.59,191.49,137.59,190.85,137.64Z"/><path class="cls-4" d="M353.55,118.89c7-.74,8.36,1.14,5.51,5.73q-17.71,28.51-35.39,57c-2.16,3.49-4.84,5.08-8.75,2.81C296.8,173.9,280.1,161.72,269.41,143c-2.29-4-4.68-8.52,2.82-9.85C299.92,128.28,327.61,123.44,353.55,118.89Z"/><path class="cls-5" d="M235.36,206.78c11.69-.5,22.08.59,31.71,5.67,2.86,1.51,6.06,3.21,6.2,6.73s-2.75,5.62-5.78,6.9c-21.06,8.89-42.14,8.75-63.13-.23-2.64-1.13-5-3-5.06-6.4-.09-3.78,2.27-5.73,5.37-7.14A61.23,61.23,0,0,1,235.36,206.78Z"/><path class="cls-5" d="M194.47,272.18c-10.89-.46-21.66-1.56-31.36-7.08-6.61-3.76-6.7-9.63.19-12.83,17.82-8.3,36.31-8.41,55-3.07,2.73.78,5.24,2.17,2.26,5.18a87.81,87.81,0,0,0-11.64,14.82C206,273.75,199.39,271.24,194.47,272.18Z"/><path class="cls-5" d="M238.39,252.81c6.15.82,11.82,4.42,17.37,8.16,6.38,4.3,12.26,9.23,16.8,15.54,3.31,4.6,10.28,9.66,8.37,14.12-2.52,5.9-11.61,4.84-17.58,7.54a5.1,5.1,0,0,1-5.4-1c-11.68-9.25-21.88-19.72-26-34.56C230.63,257.94,229.72,252.54,238.39,252.81Z"/><path class="cls-5" d="M413.83,248.31c-3.18,2.83-6.9,4.89-11.41,4.25-8.35-1.18-34.59-31.16-35.51-39.89-.34-3.3,1-3.91,3.75-3.6,8.44,1,39.92,28.89,42.35,37.6A14.49,14.49,0,0,0,413.83,248.31Z"/><path class="cls-5" d="M328.45,227c-9.57-.24-19-1.1-28-4.54-2.14-.82-4.56-1.48-4.48-4.11s2.55-3.18,4.73-3.82c14.22-4.21,28.76-4.43,43.38-3.39,2.45.18,6.53.94,4.42,4-2.5,3.58,3.56,10.67-4.82,11.19C338.59,226.59,333.52,226.75,328.45,227Z"/><path class="cls-6" d="M194.09,290.33c-9.66-.06-19.11-1.13-28.05-5.06-3.58-1.57-6.91-3.49-8-7.65-.81-3.25-1.1-6.21,3.9-4.12,14.49,6.05,29.64,7.13,45.08,5.89,4.11-.33,5.77,1.74,6.07,5.54.35,4.37-2.83,4.31-5.68,4.54C203,289.83,198.54,290.05,194.09,290.33Z"/><path class="cls-6" d="M322.16,265.59c13.74.32,27.4-.14,40.73-4,1.41-.41,4.17-.54,4.33-.11.77,2.18-1.07,3.56-2.74,4.23-20.82,8.31-42,9.5-63.58,3.16-1-.29-2.88-.49-2.18-2.07.33-.75,2.19-1.12,3.36-1.14C308.77,265.54,315.47,265.59,322.16,265.59Z"/><path class="cls-6" d="M217.94,272.38c0-3,.49-6.3,3.6-7.11,3.46-.91,3.56,2.93,4.51,5,4.5,9.69,10.92,17.91,18.42,25.43,1.78,1.79,5.94,3.44,3.8,6.57-2,2.9-6,3.62-9.6,2.22C231.12,301.57,217.81,280.85,217.94,272.38Z"/><path class="cls-6" d="M225.75,239.64A85.81,85.81,0,0,0,266.88,235c2-.74,4.28-2.54,6-.18s.37,5.1-1.31,6.91a22,22,0,0,1-18.17,6.73c-9.65-.85-19.18-3.33-28.71-5.33-2-.42-3.84-1.76-5.75-2.68C221,238.29,223.5,240.05,225.75,239.64Z"/><path class="cls-6" d="M332,241.48c-10.58.43-21.11.12-31.16-3.77-2.6-1-6.37-1.8-5.5-5.44,1.16-4.87,4.59-1.43,6.93-.89,14.12,3.28,28.33,4.57,42.79,2.8,3.58-.43,9-1.88,8.93,3.76,0,4.7-5.46,3.12-8.61,3.43C341,241.8,336.45,241.48,332,241.48Z"/><path class="cls-6" d="M308.35,257.53c-7.35-.88-15.07-.22-22.53-2.4-2.4-.7-4.32-1.53-3.94-4.37.44-3.31,2.75-2.57,5.06-2.26,17.43,2.32,34.93,2.18,52.44,1.25,1.36-.07,3.53-1.1,3.79,1.14.24,2-2,2.06-3.46,2.53C329.59,256.7,319.09,257.18,308.35,257.53Z"/><path class="cls-6" d="M358.84,216.51a32.49,32.49,0,0,1,2.53,3.49c6.5,12.3,15.65,22.41,25.75,31.81,1.33,1.24,4.85,2.33,2.71,5-2,2.47-4.95,2.46-7.61.14-10.18-8.86-19.22-18.67-25.05-31C355.69,222.77,355.08,219.45,358.84,216.51Z"/><path class="cls-6" d="M295.52,287.36c-7.3,0-16.08-14.21-13.37-19.83,1.15-2.38,3.11-2.72,4.42-.89,5.49,7.63,13.67,10.06,22.1,12.22a13.76,13.76,0,0,1,3.24,1.86c-.93.78-1.73,1.93-2.81,2.3C304.29,284.69,299.4,286.14,295.52,287.36Z"/><path class="cls-4" d="M149.26,271c.82,6.87-2,8.87-8.23,6.28-.87-.36-1.81-.59-2.65-1-5.11-2.59-11.55-2.47-15.41-7.59,6.56-4.18,14.08-5.41,21.52-6C150.29,262.3,148.88,267.59,149.26,271Z"/><path class="cls-5" d="M291.36,206.19c2.59-.46,4.48-.5,5,1.19.61,1.86-1.59,2.27-2.7,3.13-2.24,1.73-4.54,3.4-6.89,5-3.78,2.51-6,.05-7.49-2.9-2.21-4.41,2-3.45,3.94-4.11C286.21,207.47,289.28,206.76,291.36,206.19Z"/><path class="cls-5" d="M167.94,241.26c-4.42,2.36-8.7,5-13.24,7-2.47,1.08-5.47-1.48-4.79-3,2.59-5.86,9.09-4.06,13.86-5.72A3,3,0,0,1,167.94,241.26Z"/><path class="cls-6" d="M215.14,297.06c3.2,0,6.24.31,6.59,4.11.29,3.18-2.32,3.79-4.55,3.2-3.5-.92-8.76-.58-9.35-4.78C207.51,297.35,212.55,297.55,215.14,297.06Z"/><path class="cls-6" d="M274.07,255.17c-.64,3.18-1.48,5.53-4.74,5.42-2.89-.09-5.4-2.09-4.93-4.49.57-2.93,4.26-3.33,6.92-4C274.56,251.35,273.3,254.34,274.07,255.17Z"/><path class="cls-5" d="M364.31,251.29c-1.44,3.53-4.86,3.35-7.88,3.66-1.93.2-4-.13-3.05-3.07s2.71-5,6.24-4.69C362.16,247.39,363.78,248.49,364.31,251.29Z"/><path class="cls-5" d="M287.93,237.22c.74,2.62-.72,2.74-2.43,2.29-2.83-.75-4-2.7-3.91-5.6.09-2.38.88-5.15,3.33-4.59C289.06,230.28,286.18,234.9,287.93,237.22Z"/><path class="cls-5" d="M353.36,278.48c-27,9.26-27.1,9-27.09,37.8,0,7.68-.09,15.35.06,23,0,2.22-.8,6.47,3.31,5.06,10.23-3.51,20.23-7.71,30.21-11.91,2.73-1.15,2.36-4.25,2.5-6.8.69-13.07.83-26.21,2.27-39.2C365.82,275.64,362.13,275.47,353.36,278.48Zm1.12,37.59a8.78,8.78,0,0,1-7,8.6l-4.07.84a4.63,4.63,0,0,1-5.57-4.53V305.91a9.44,9.44,0,0,1,7.54-9.25l2.74-.56a5.3,5.3,0,0,1,6.37,5.19Z"/><path class="cls-2" d="M347.47,324.67l-4.07.84a4.63,4.63,0,0,1-5.57-4.53V305.91a9.44,9.44,0,0,1,7.55-9.25l2.73-.56a5.3,5.3,0,0,1,6.37,5.19v14.78A8.78,8.78,0,0,1,347.47,324.67Z"/></svg>