<?xml version="1.0" standalone="no"?>
<!DOCTYPE svg PUBLIC "-//W3C//DTD SVG 20010904//EN"
 "http://www.w3.org/TR/2001/REC-SVG-20010904/DTD/svg10.dtd">
<svg version="1.0" xmlns="http://www.w3.org/2000/svg"
 width="50.000000pt" height="50.000000pt" viewBox="0 0 50.000000 50.000000"
 preserveAspectRatio="xMidYMid meet">
<metadata>
Created by potrace 1.16, written by Peter Selinger 2001-2019
</metadata>
<g transform="translate(0.000000,50.000000) scale(0.200000,-0.200000)"
fill="#000000" stroke="none">
<path d="M0 215 c0 -32 2 -35 30 -35 25 0 30 -4 30 -25 0 -21 -5 -25 -30 -25
-28 0 -30 -3 -30 -35 0 -32 2 -35 29 -35 26 0 30 -4 34 -32 l4 -33 1 33 c2 32
2 32 56 32 54 0 55 0 59 -32 l4 -33 1 33 c2 29 5 32 32 32 28 0 30 3 30 35 0
32 -2 35 -30 35 -25 0 -30 4 -30 24 0 20 6 25 33 29 17 2 4 5 -30 5 -60 2 -63
3 -63 27 0 23 4 24 63 28 34 2 5 4 -65 5 l-128 2 0 -35z"/>
</g>
</svg>
