<?xml version="1.0" encoding="utf-8"?>
<!-- Generator: Adobe Illustrator 24.1.1, SVG Export Plug-In . SVG Version: 6.00 Build 0)  -->
<svg version="1.1" width="24" height="24" fill="white" id="Layer_1" xmlns="http://www.w3.org/2000/svg" xmlns:xlink="http://www.w3.org/1999/xlink" x="0px" y="0px"
	 viewBox="0 0 24 24" style="enable-background:new 0 0 24 24;" xml:space="preserve">
<path d="M9.9,6.1c1.2-0.1,2.6-0.2,4-0.2s2.8,0.1,4,0.2V12h-1.7c-0.1-1.1-0.4-2.4-0.4-2.4c-0.1-0.3-0.4-0.5-0.8-0.5h-2.4
	c-0.3,0-0.6,0.2-0.8,0.5c0,0-0.3,1.3-0.4,2.4H9.9L9.9,6.1L9.9,6.1z"/>
<path d="M18.9,15.5v6c1.2-0.2,2.4-0.4,2.4-0.4c0.3-0.1,0.5-0.3,0.5-0.6c0-0.1,0.8-3.3,0.8-6.6c0-0.3,0-0.5,0-0.8l-6.4,0
	c-0.1,1.5-0.4,2.6-0.4,2.7c-0.1,0.3-0.4,0.5-0.8,0.5h-2.4c-0.3,0-0.6-0.2-0.8-0.5c0,0-0.4-1.1-0.4-2.7H5.2c0,0.3,0,0.5,0,0.8
	c0,3.3,0.8,6.5,0.8,6.6C6,20.8,6.2,21,6.5,21.1c0.1,0,1.2,0.2,2.4,0.4v-6l1,0v6.2c1.1,0.1,2.4,0.2,4,0.2s2.9-0.1,4-0.2v-6.2
	L18.9,15.5z"/>
<path d="M18.9,12h3.6c0-0.4-0.1-1.4-0.1-1.8c-0.2-1.7-2-3.1-3.5-3.7V12z"/>
<path d="M8.9,12V6.5c-1.5,0.6-3.2,2-3.5,3.7c-0.1,0.4-0.1,1.4-0.1,1.8H8.9z"/>
<path d="M14.7,15.4c0.1-0.6,0.3-1.6,0.3-2.7s-0.2-2-0.3-2.7h-1.5c-0.1,0.6-0.3,1.6-0.3,2.7s0.2,2,0.3,2.7H14.7z"/>
<path d="M6.9,4.1H5.1V2.4c0-0.2-0.1-0.3-0.3-0.3H3.6c-0.2,0-0.3,0.1-0.3,0.3v1.7H1.5c-0.1,0-0.3,0.1-0.3,0.3v1.3
	C1.3,5.8,1.4,6,1.5,6h1.7v1.7C3.3,7.8,3.4,8,3.6,8h1.2C5,8,5.1,7.8,5.1,7.7V6h1.7C7,6,7.1,5.8,7.1,5.7V4.4C7.1,4.2,7,4.1,6.9,4.1z"
	/>
</svg>
